<svg enable-background="new 0 0 24 24" viewBox="0 0 24 24" xmlns="http://www.w3.org/2000/svg"><g fill="#ff462b"><path d="m6.1 11.8c-.3 0-.5.2-.5.5v6.3c0 .3.2.5.5.5s.5-.2.5-.5v-6.3c0-.3-.2-.5-.5-.5z"/><path d="m14 12.2c-.3 0-.5.2-.5.5v6c0 .3.2.5.5.5s.5-.2.5-.5v-6c0-.3-.3-.5-.5-.5z"/><path d="m17.9 10c-.3 0-.5.2-.5.5v8.1c0 .3.2.5.5.5s.5-.2.5-.5v-8.1c0-.3-.2-.5-.5-.5z"/><path d="m10 14.5c-.3 0-.5.2-.5.5v3.7c0 .3.2.5.5.5s.5-.2.5-.5v-3.7c0-.3-.2-.5-.5-.5z"/><path d="m18.4 5.2c-.1-.1-.1-.1-.1-.2s-.1-.1-.1-.1 0 0-.1-.1h-.1-.1-3c-.3 0-.5.2-.5.5s.2.5.5.5h1.6l-6.5 5.5-3.3-2.2c-.3-.1-.6-.1-.7.2-.2.2-.1.5.1.6l3.7 2.4c.1.1.2.1.3.1s.2 0 .3-.1l7.1-5.8v2c0 .3.2.5.5.5s.5-.2.5-.5v-3c-.1-.2-.1-.2-.1-.3z"/></g></svg>