<svg enable-background="new 0 0 24 24" viewBox="0 0 24 24" xmlns="http://www.w3.org/2000/svg"><g fill="#ff462b"><path d="m17.8 14.5h-10.4l2-2c.2-.2.2-.5 0-.7s-.5-.2-.7 0l-2.9 2.9s-.1.1-.1.2v.2s0 .1 0 .2.1.1.1.2l2.9 2.9c.1.1.2.1.4.1.1 0 .3-.1.3-.1.2-.2.2-.5 0-.7l-2-2h10.3c.3 0 .5-.2.5-.5s-.2-.7-.4-.7z"/><path d="m18.1 8.5-2.9-2.9c-.2-.2-.5-.2-.7 0s-.2.5 0 .7l2 2h-10.3c-.3 0-.5.2-.5.5s.2.5.5.5h10.3l-2 2c-.2.2-.2.5 0 .7.1.1.2.1.4.1s.3-.1.4-.1l2.9-2.9s.1-.1.1-.2 0-.3 0-.4c-.1.1-.1 0-.2 0z"/></g></svg>