<svg enable-background="new 0 0 24 24" viewBox="0 0 24 24" xmlns="http://www.w3.org/2000/svg"><g fill="#ff462b"><path d="m15.2 17.2c.2-.2.3-.5.2-.7s-.4-.3-.7-.2c-1.9 1.2-4.5.9-6.1-.7-1-1-1.5-2.4-1.4-3.8 0-.3-.2-.5-.5-.5s-.5.2-.5.5c-.1 1.7.5 3.3 1.7 4.5 1.1 1.1 2.7 1.7 4.2 1.7 1 .1 2.1-.2 3.1-.8z"/><path d="m12 6.3c-1.6 0-3.1.6-4.2 1.7v-1.2c0-.3-.2-.5-.5-.5s-.5.2-.5.5v2.8c0 .3.2.5.5.5h2.8c.3 0 .5-.2.5-.5s-.2-.5-.5-.5h-1.9c.1-.1.2-.3.3-.4 1.9-1.9 5-1.9 7 0 1.6 1.6 1.9 4.2.7 6.1-.1.2-.1.5.1.7.1.1.2.1.3.1.2 0 .3-.1.4-.2 1.5-2.3 1.1-5.4-.8-7.3-1.1-1.2-2.6-1.8-4.2-1.8z"/></g></svg>