<svg enable-background="new 0 0 24 24" viewBox="0 0 24 24" xmlns="http://www.w3.org/2000/svg"><path d="m19.1 10.2h-6.9l6.8-1c.2 0 .4-.1.5-.3s.2-.4.1-.6l-.3-2c-.1-.9-.9-1.5-1.8-1.3l-12 1.7c-.4.1-.8.3-1 .6-.3.4-.4.8-.3 1.2l.3 2.2v6.7c0 .9.7 1.6 1.6 1.6h12.2c.9 0 1.6-.7 1.6-1.6v-6.4c-.1-.4-.4-.8-.8-.8zm-8.4-.8-2.5.4 1.2-2.6 2.4-.3zm2.4-2.7 2.4-.3-1.2 2.6-2.4.3zm4.6-.7c.3-.1.6.2.6.5l.2 1.8-3.2.4 1.2-2.6zm-12.4 1.9c.1-.1.2-.2.4-.2l2.6-.4-1.3 2.6-1.6.2-.2-1.7c0-.2 0-.4.1-.5zm13.5 9.5c0 .3-.3.6-.6.6h-12.1c-.3 0-.6-.3-.6-.6v-6.2h13.3z" fill="#ff462b"/></svg>