<svg enable-background="new 0 0 24 24" viewBox="0 0 24 24" xmlns="http://www.w3.org/2000/svg"><g fill="#ff462b"><path d="m18.5 5h-13c-.3 0-.7.3-.7.7v12.9c0 .4.3.7.7.7h12.9c.4 0 .7-.3.7-.7v-12.9c.1-.4-.2-.7-.6-.7zm-.3 13.3h-12.4v-12.3h12.3v12.3z"/><path d="m8.6 16.4c.3 0 .5-.2.5-.5v-3.3c0-.3-.2-.5-.5-.5s-.5.2-.5.5v3.3c0 .3.2.5.5.5z"/><path d="m15.4 16.4c.3 0 .5-.2.5-.5v-7.6c0-.3-.2-.5-.5-.5s-.5.2-.5.5v7.6c0 .3.2.5.5.5z"/><path d="m11.9 16.4c.3 0 .5-.2.5-.5v-1.6c0-.3-.2-.5-.5-.5s-.5.2-.5.5v1.6c0 .3.3.5.5.5z"/><path d="m11.9 12.6c.3 0 .5-.2.5-.5v-1.6c0-.3-.2-.5-.5-.5s-.5.2-.5.5v1.6c0 .2.3.5.5.5z"/></g></svg>